%TF.GenerationSoftware,KiCad,Pcbnew,9.0.8-9.0.8~ubuntu24.04.1*%
%TF.CreationDate,2026-05-02T22:26:06+02:00*%
%TF.ProjectId,Tutorial_2_M&M,5475746f-7269-4616-9c5f-325f4d264d2e,rev?*%
%TF.SameCoordinates,Original*%
%TF.FileFunction,Legend,Top*%
%TF.FilePolarity,Positive*%
%FSLAX46Y46*%
G04 Gerber Fmt 4.6, Leading zero omitted, Abs format (unit mm)*
G04 Created by KiCad (PCBNEW 9.0.8-9.0.8~ubuntu24.04.1) date 2026-05-02 22:26:06*
%MOMM*%
%LPD*%
G01*
G04 APERTURE LIST*
%ADD10C,0.090000*%
%ADD11C,0.091250*%
%ADD12C,0.150000*%
%ADD13C,0.120000*%
%ADD14C,0.000000*%
G04 APERTURE END LIST*
D10*
X149544924Y-95185177D02*
X149844924Y-96085177D01*
X149844924Y-96085177D02*
X150144924Y-95185177D01*
X150830639Y-96085177D02*
X150830639Y-95613748D01*
X150830639Y-95613748D02*
X150787781Y-95528034D01*
X150787781Y-95528034D02*
X150702067Y-95485177D01*
X150702067Y-95485177D02*
X150530639Y-95485177D01*
X150530639Y-95485177D02*
X150444924Y-95528034D01*
X150830639Y-96042320D02*
X150744924Y-96085177D01*
X150744924Y-96085177D02*
X150530639Y-96085177D01*
X150530639Y-96085177D02*
X150444924Y-96042320D01*
X150444924Y-96042320D02*
X150402067Y-95956605D01*
X150402067Y-95956605D02*
X150402067Y-95870891D01*
X150402067Y-95870891D02*
X150444924Y-95785177D01*
X150444924Y-95785177D02*
X150530639Y-95742320D01*
X150530639Y-95742320D02*
X150744924Y-95742320D01*
X150744924Y-95742320D02*
X150830639Y-95699462D01*
X151216353Y-96042320D02*
X151302067Y-96085177D01*
X151302067Y-96085177D02*
X151473496Y-96085177D01*
X151473496Y-96085177D02*
X151559210Y-96042320D01*
X151559210Y-96042320D02*
X151602067Y-95956605D01*
X151602067Y-95956605D02*
X151602067Y-95913748D01*
X151602067Y-95913748D02*
X151559210Y-95828034D01*
X151559210Y-95828034D02*
X151473496Y-95785177D01*
X151473496Y-95785177D02*
X151344925Y-95785177D01*
X151344925Y-95785177D02*
X151259210Y-95742320D01*
X151259210Y-95742320D02*
X151216353Y-95656605D01*
X151216353Y-95656605D02*
X151216353Y-95613748D01*
X151216353Y-95613748D02*
X151259210Y-95528034D01*
X151259210Y-95528034D02*
X151344925Y-95485177D01*
X151344925Y-95485177D02*
X151473496Y-95485177D01*
X151473496Y-95485177D02*
X151559210Y-95528034D01*
X151987781Y-96085177D02*
X151987781Y-95485177D01*
X151987781Y-95185177D02*
X151944924Y-95228034D01*
X151944924Y-95228034D02*
X151987781Y-95270891D01*
X151987781Y-95270891D02*
X152030638Y-95228034D01*
X152030638Y-95228034D02*
X151987781Y-95185177D01*
X151987781Y-95185177D02*
X151987781Y-95270891D01*
X152544924Y-96085177D02*
X152459209Y-96042320D01*
X152459209Y-96042320D02*
X152416352Y-95956605D01*
X152416352Y-95956605D02*
X152416352Y-95185177D01*
X153230638Y-96042320D02*
X153144924Y-96085177D01*
X153144924Y-96085177D02*
X152973496Y-96085177D01*
X152973496Y-96085177D02*
X152887781Y-96042320D01*
X152887781Y-96042320D02*
X152844924Y-95956605D01*
X152844924Y-95956605D02*
X152844924Y-95613748D01*
X152844924Y-95613748D02*
X152887781Y-95528034D01*
X152887781Y-95528034D02*
X152973496Y-95485177D01*
X152973496Y-95485177D02*
X153144924Y-95485177D01*
X153144924Y-95485177D02*
X153230638Y-95528034D01*
X153230638Y-95528034D02*
X153273496Y-95613748D01*
X153273496Y-95613748D02*
X153273496Y-95699462D01*
X153273496Y-95699462D02*
X152844924Y-95785177D01*
X154216353Y-95185177D02*
X154516353Y-96085177D01*
X154516353Y-96085177D02*
X154816353Y-95185177D01*
X155502068Y-96085177D02*
X155502068Y-95613748D01*
X155502068Y-95613748D02*
X155459210Y-95528034D01*
X155459210Y-95528034D02*
X155373496Y-95485177D01*
X155373496Y-95485177D02*
X155202068Y-95485177D01*
X155202068Y-95485177D02*
X155116353Y-95528034D01*
X155502068Y-96042320D02*
X155416353Y-96085177D01*
X155416353Y-96085177D02*
X155202068Y-96085177D01*
X155202068Y-96085177D02*
X155116353Y-96042320D01*
X155116353Y-96042320D02*
X155073496Y-95956605D01*
X155073496Y-95956605D02*
X155073496Y-95870891D01*
X155073496Y-95870891D02*
X155116353Y-95785177D01*
X155116353Y-95785177D02*
X155202068Y-95742320D01*
X155202068Y-95742320D02*
X155416353Y-95742320D01*
X155416353Y-95742320D02*
X155502068Y-95699462D01*
X155802068Y-95485177D02*
X156144925Y-95485177D01*
X155930639Y-95185177D02*
X155930639Y-95956605D01*
X155930639Y-95956605D02*
X155973496Y-96042320D01*
X155973496Y-96042320D02*
X156059211Y-96085177D01*
X156059211Y-96085177D02*
X156144925Y-96085177D01*
X156830640Y-96085177D02*
X156830640Y-95613748D01*
X156830640Y-95613748D02*
X156787782Y-95528034D01*
X156787782Y-95528034D02*
X156702068Y-95485177D01*
X156702068Y-95485177D02*
X156530640Y-95485177D01*
X156530640Y-95485177D02*
X156444925Y-95528034D01*
X156830640Y-96042320D02*
X156744925Y-96085177D01*
X156744925Y-96085177D02*
X156530640Y-96085177D01*
X156530640Y-96085177D02*
X156444925Y-96042320D01*
X156444925Y-96042320D02*
X156402068Y-95956605D01*
X156402068Y-95956605D02*
X156402068Y-95870891D01*
X156402068Y-95870891D02*
X156444925Y-95785177D01*
X156444925Y-95785177D02*
X156530640Y-95742320D01*
X156530640Y-95742320D02*
X156744925Y-95742320D01*
X156744925Y-95742320D02*
X156830640Y-95699462D01*
X157259211Y-96085177D02*
X157259211Y-95485177D01*
X157259211Y-95570891D02*
X157302068Y-95528034D01*
X157302068Y-95528034D02*
X157387783Y-95485177D01*
X157387783Y-95485177D02*
X157516354Y-95485177D01*
X157516354Y-95485177D02*
X157602068Y-95528034D01*
X157602068Y-95528034D02*
X157644926Y-95613748D01*
X157644926Y-95613748D02*
X157644926Y-96085177D01*
X157644926Y-95613748D02*
X157687783Y-95528034D01*
X157687783Y-95528034D02*
X157773497Y-95485177D01*
X157773497Y-95485177D02*
X157902068Y-95485177D01*
X157902068Y-95485177D02*
X157987783Y-95528034D01*
X157987783Y-95528034D02*
X158030640Y-95613748D01*
X158030640Y-95613748D02*
X158030640Y-96085177D01*
X158844926Y-96085177D02*
X158844926Y-95613748D01*
X158844926Y-95613748D02*
X158802068Y-95528034D01*
X158802068Y-95528034D02*
X158716354Y-95485177D01*
X158716354Y-95485177D02*
X158544926Y-95485177D01*
X158544926Y-95485177D02*
X158459211Y-95528034D01*
X158844926Y-96042320D02*
X158759211Y-96085177D01*
X158759211Y-96085177D02*
X158544926Y-96085177D01*
X158544926Y-96085177D02*
X158459211Y-96042320D01*
X158459211Y-96042320D02*
X158416354Y-95956605D01*
X158416354Y-95956605D02*
X158416354Y-95870891D01*
X158416354Y-95870891D02*
X158459211Y-95785177D01*
X158459211Y-95785177D02*
X158544926Y-95742320D01*
X158544926Y-95742320D02*
X158759211Y-95742320D01*
X158759211Y-95742320D02*
X158844926Y-95699462D01*
X159273497Y-95485177D02*
X159273497Y-96085177D01*
X159273497Y-95570891D02*
X159316354Y-95528034D01*
X159316354Y-95528034D02*
X159402069Y-95485177D01*
X159402069Y-95485177D02*
X159530640Y-95485177D01*
X159530640Y-95485177D02*
X159616354Y-95528034D01*
X159616354Y-95528034D02*
X159659212Y-95613748D01*
X159659212Y-95613748D02*
X159659212Y-96085177D01*
D11*
X152788603Y-93585112D02*
X153345746Y-93585112D01*
X153345746Y-93585112D02*
X153045746Y-93927969D01*
X153045746Y-93927969D02*
X153174317Y-93927969D01*
X153174317Y-93927969D02*
X153260032Y-93970826D01*
X153260032Y-93970826D02*
X153302889Y-94013683D01*
X153302889Y-94013683D02*
X153345746Y-94099397D01*
X153345746Y-94099397D02*
X153345746Y-94313683D01*
X153345746Y-94313683D02*
X153302889Y-94399397D01*
X153302889Y-94399397D02*
X153260032Y-94442255D01*
X153260032Y-94442255D02*
X153174317Y-94485112D01*
X153174317Y-94485112D02*
X152917174Y-94485112D01*
X152917174Y-94485112D02*
X152831460Y-94442255D01*
X152831460Y-94442255D02*
X152788603Y-94399397D01*
X153645746Y-93585112D02*
X154202889Y-93585112D01*
X154202889Y-93585112D02*
X153902889Y-93927969D01*
X153902889Y-93927969D02*
X154031460Y-93927969D01*
X154031460Y-93927969D02*
X154117175Y-93970826D01*
X154117175Y-93970826D02*
X154160032Y-94013683D01*
X154160032Y-94013683D02*
X154202889Y-94099397D01*
X154202889Y-94099397D02*
X154202889Y-94313683D01*
X154202889Y-94313683D02*
X154160032Y-94399397D01*
X154160032Y-94399397D02*
X154117175Y-94442255D01*
X154117175Y-94442255D02*
X154031460Y-94485112D01*
X154031460Y-94485112D02*
X153774317Y-94485112D01*
X153774317Y-94485112D02*
X153688603Y-94442255D01*
X153688603Y-94442255D02*
X153645746Y-94399397D01*
X154974318Y-93585112D02*
X154802889Y-93585112D01*
X154802889Y-93585112D02*
X154717175Y-93627969D01*
X154717175Y-93627969D02*
X154674318Y-93670826D01*
X154674318Y-93670826D02*
X154588603Y-93799397D01*
X154588603Y-93799397D02*
X154545746Y-93970826D01*
X154545746Y-93970826D02*
X154545746Y-94313683D01*
X154545746Y-94313683D02*
X154588603Y-94399397D01*
X154588603Y-94399397D02*
X154631460Y-94442255D01*
X154631460Y-94442255D02*
X154717175Y-94485112D01*
X154717175Y-94485112D02*
X154888603Y-94485112D01*
X154888603Y-94485112D02*
X154974318Y-94442255D01*
X154974318Y-94442255D02*
X155017175Y-94399397D01*
X155017175Y-94399397D02*
X155060032Y-94313683D01*
X155060032Y-94313683D02*
X155060032Y-94099397D01*
X155060032Y-94099397D02*
X155017175Y-94013683D01*
X155017175Y-94013683D02*
X154974318Y-93970826D01*
X154974318Y-93970826D02*
X154888603Y-93927969D01*
X154888603Y-93927969D02*
X154717175Y-93927969D01*
X154717175Y-93927969D02*
X154631460Y-93970826D01*
X154631460Y-93970826D02*
X154588603Y-94013683D01*
X154588603Y-94013683D02*
X154545746Y-94099397D01*
X155917175Y-94485112D02*
X155402889Y-94485112D01*
X155660032Y-94485112D02*
X155660032Y-93585112D01*
X155660032Y-93585112D02*
X155574318Y-93713683D01*
X155574318Y-93713683D02*
X155488603Y-93799397D01*
X155488603Y-93799397D02*
X155402889Y-93842255D01*
X156731461Y-93585112D02*
X156302889Y-93585112D01*
X156302889Y-93585112D02*
X156260032Y-94013683D01*
X156260032Y-94013683D02*
X156302889Y-93970826D01*
X156302889Y-93970826D02*
X156388604Y-93927969D01*
X156388604Y-93927969D02*
X156602889Y-93927969D01*
X156602889Y-93927969D02*
X156688604Y-93970826D01*
X156688604Y-93970826D02*
X156731461Y-94013683D01*
X156731461Y-94013683D02*
X156774318Y-94099397D01*
X156774318Y-94099397D02*
X156774318Y-94313683D01*
X156774318Y-94313683D02*
X156731461Y-94399397D01*
X156731461Y-94399397D02*
X156688604Y-94442255D01*
X156688604Y-94442255D02*
X156602889Y-94485112D01*
X156602889Y-94485112D02*
X156388604Y-94485112D01*
X156388604Y-94485112D02*
X156302889Y-94442255D01*
X156302889Y-94442255D02*
X156260032Y-94399397D01*
D12*
X168638095Y-81954819D02*
X168638095Y-82764342D01*
X168638095Y-82764342D02*
X168685714Y-82859580D01*
X168685714Y-82859580D02*
X168733333Y-82907200D01*
X168733333Y-82907200D02*
X168828571Y-82954819D01*
X168828571Y-82954819D02*
X169019047Y-82954819D01*
X169019047Y-82954819D02*
X169114285Y-82907200D01*
X169114285Y-82907200D02*
X169161904Y-82859580D01*
X169161904Y-82859580D02*
X169209523Y-82764342D01*
X169209523Y-82764342D02*
X169209523Y-81954819D01*
X169638095Y-82050057D02*
X169685714Y-82002438D01*
X169685714Y-82002438D02*
X169780952Y-81954819D01*
X169780952Y-81954819D02*
X170019047Y-81954819D01*
X170019047Y-81954819D02*
X170114285Y-82002438D01*
X170114285Y-82002438D02*
X170161904Y-82050057D01*
X170161904Y-82050057D02*
X170209523Y-82145295D01*
X170209523Y-82145295D02*
X170209523Y-82240533D01*
X170209523Y-82240533D02*
X170161904Y-82383390D01*
X170161904Y-82383390D02*
X169590476Y-82954819D01*
X169590476Y-82954819D02*
X170209523Y-82954819D01*
X185011666Y-94314819D02*
X185011666Y-95029104D01*
X185011666Y-95029104D02*
X184964047Y-95171961D01*
X184964047Y-95171961D02*
X184868809Y-95267200D01*
X184868809Y-95267200D02*
X184725952Y-95314819D01*
X184725952Y-95314819D02*
X184630714Y-95314819D01*
X185440238Y-94410057D02*
X185487857Y-94362438D01*
X185487857Y-94362438D02*
X185583095Y-94314819D01*
X185583095Y-94314819D02*
X185821190Y-94314819D01*
X185821190Y-94314819D02*
X185916428Y-94362438D01*
X185916428Y-94362438D02*
X185964047Y-94410057D01*
X185964047Y-94410057D02*
X186011666Y-94505295D01*
X186011666Y-94505295D02*
X186011666Y-94600533D01*
X186011666Y-94600533D02*
X185964047Y-94743390D01*
X185964047Y-94743390D02*
X185392619Y-95314819D01*
X185392619Y-95314819D02*
X186011666Y-95314819D01*
D13*
%TO.C,C2*%
X175259420Y-86490000D02*
X175540580Y-86490000D01*
X175259420Y-87510000D02*
X175540580Y-87510000D01*
%TO.C,R1*%
X159962742Y-87477500D02*
X160437258Y-87477500D01*
X159962742Y-88522500D02*
X160437258Y-88522500D01*
%TO.C,J1*%
X152210000Y-82330000D02*
X153910000Y-82330000D01*
X152210000Y-91670000D02*
X153910000Y-91670000D01*
%TO.C,U2*%
X167150000Y-83590000D02*
X170910000Y-83590000D01*
X167150000Y-90410000D02*
X170910000Y-90410000D01*
X170910000Y-83590000D02*
X170910000Y-84850000D01*
X170910000Y-90410000D02*
X170910000Y-89150000D01*
X165870000Y-83690000D02*
X165630000Y-83360000D01*
X166110000Y-83360000D01*
X165870000Y-83690000D01*
G36*
X165870000Y-83690000D02*
G01*
X165630000Y-83360000D01*
X166110000Y-83360000D01*
X165870000Y-83690000D01*
G37*
%TO.C,C1*%
X162890000Y-87515580D02*
X162890000Y-87234420D01*
X163910000Y-87515580D02*
X163910000Y-87234420D01*
%TO.C,J2*%
X183965000Y-78970000D02*
X183965000Y-78400000D01*
X183965000Y-84050000D02*
X183965000Y-80590000D01*
X183965000Y-89130000D02*
X183965000Y-85670000D01*
X183965000Y-93290000D02*
X183965000Y-90750000D01*
X186725000Y-78400000D02*
X183965000Y-78400000D01*
X186725000Y-81510000D02*
X186725000Y-78400000D01*
X186725000Y-86590000D02*
X186725000Y-83130000D01*
X186725000Y-91670000D02*
X186725000Y-88210000D01*
X186725000Y-93290000D02*
X188195000Y-93290000D01*
X186725000Y-93860000D02*
X183965000Y-93860000D01*
X186725000Y-93860000D02*
X186725000Y-93290000D01*
%TO.C,R2*%
X158562742Y-81677500D02*
X159037258Y-81677500D01*
X158562742Y-82722500D02*
X159037258Y-82722500D01*
D14*
%TO.C,G\u002A\u002A\u002A*%
G36*
X160372111Y-91769416D02*
G01*
X160441489Y-91793317D01*
X160452783Y-91799499D01*
X160463326Y-91805844D01*
X160473659Y-91812821D01*
X160484845Y-91821696D01*
X160497951Y-91833734D01*
X160514042Y-91850199D01*
X160534183Y-91872357D01*
X160559440Y-91901471D01*
X160590878Y-91938806D01*
X160629563Y-91985628D01*
X160676559Y-92043200D01*
X160732933Y-92112789D01*
X160799750Y-92195657D01*
X160878075Y-92293070D01*
X160968974Y-92406293D01*
X161069216Y-92531235D01*
X161353114Y-92885129D01*
X161352857Y-94019837D01*
X161352805Y-94208213D01*
X161352721Y-94374587D01*
X161352576Y-94520400D01*
X161352339Y-94647092D01*
X161351983Y-94756104D01*
X161351477Y-94848877D01*
X161350793Y-94926851D01*
X161349900Y-94991466D01*
X161348770Y-95044164D01*
X161347374Y-95086385D01*
X161345682Y-95119570D01*
X161343665Y-95145159D01*
X161341294Y-95164593D01*
X161338539Y-95179312D01*
X161335371Y-95190757D01*
X161331761Y-95200370D01*
X161328724Y-95207291D01*
X161288399Y-95274865D01*
X161234488Y-95325630D01*
X161183156Y-95355175D01*
X161108326Y-95378186D01*
X161029014Y-95380734D01*
X160961946Y-95365901D01*
X160894070Y-95329881D01*
X160836593Y-95275921D01*
X160802267Y-95223944D01*
X160772911Y-95166909D01*
X160769732Y-94130026D01*
X160766553Y-93093143D01*
X160421901Y-92663770D01*
X160351156Y-92575399D01*
X160284231Y-92491345D01*
X160222712Y-92413633D01*
X160168182Y-92344283D01*
X160122225Y-92285318D01*
X160086427Y-92238759D01*
X160062370Y-92206629D01*
X160052148Y-92191857D01*
X160030218Y-92136614D01*
X160019773Y-92069980D01*
X160021772Y-92001510D01*
X160029284Y-91963732D01*
X160054593Y-91908710D01*
X160096284Y-91855285D01*
X160147895Y-91809932D01*
X160202964Y-91779123D01*
X160218883Y-91773771D01*
X160295212Y-91762604D01*
X160372111Y-91769416D01*
G37*
G36*
X162776176Y-91713944D02*
G01*
X162776269Y-91746256D01*
X162776242Y-91797125D01*
X162776100Y-91864106D01*
X162775848Y-91944755D01*
X162775492Y-92036631D01*
X162775039Y-92137289D01*
X162774798Y-92186132D01*
X162772347Y-92669635D01*
X162432574Y-93120904D01*
X162092801Y-93572173D01*
X162085302Y-94814628D01*
X162083996Y-95013242D01*
X162082560Y-95198577D01*
X162081011Y-95369622D01*
X162079362Y-95525366D01*
X162077629Y-95664799D01*
X162075827Y-95786909D01*
X162073970Y-95890687D01*
X162072075Y-95975121D01*
X162070155Y-96039200D01*
X162068226Y-96081915D01*
X162066302Y-96102253D01*
X162066197Y-96102702D01*
X162047021Y-96144091D01*
X162012704Y-96189094D01*
X161969419Y-96231564D01*
X161923337Y-96265354D01*
X161885073Y-96283115D01*
X161806109Y-96295848D01*
X161727337Y-96289216D01*
X161684125Y-96276220D01*
X161627541Y-96244276D01*
X161574433Y-96197921D01*
X161534139Y-96145443D01*
X161531490Y-96140758D01*
X161528407Y-96133909D01*
X161525645Y-96124389D01*
X161523183Y-96110917D01*
X161521001Y-96092212D01*
X161519077Y-96066993D01*
X161517390Y-96033978D01*
X161515917Y-95991887D01*
X161514639Y-95939438D01*
X161513533Y-95875351D01*
X161512578Y-95798343D01*
X161511753Y-95707135D01*
X161511037Y-95600445D01*
X161510408Y-95476992D01*
X161509845Y-95335494D01*
X161509327Y-95174672D01*
X161508832Y-94993243D01*
X161508339Y-94789926D01*
X161508231Y-94743483D01*
X161505111Y-93382999D01*
X161789542Y-93006848D01*
X161859398Y-92914448D01*
X161940099Y-92807675D01*
X162028368Y-92690867D01*
X162120927Y-92568360D01*
X162214499Y-92444493D01*
X162305807Y-92323604D01*
X162391573Y-92210030D01*
X162424317Y-92166663D01*
X162493198Y-92075463D01*
X162557644Y-91990200D01*
X162616306Y-91912653D01*
X162667836Y-91844603D01*
X162710886Y-91787827D01*
X162744108Y-91744105D01*
X162766153Y-91715216D01*
X162775675Y-91702938D01*
X162775955Y-91702630D01*
X162776176Y-91713944D01*
G37*
%TD*%
M02*
