%TF.GenerationSoftware,KiCad,Pcbnew,9.0.8-9.0.8~ubuntu24.04.1*%
%TF.CreationDate,2026-05-02T22:26:06+02:00*%
%TF.ProjectId,Tutorial_2_M&M,5475746f-7269-4616-9c5f-325f4d264d2e,rev?*%
%TF.SameCoordinates,Original*%
%TF.FileFunction,Copper,L2,Bot*%
%TF.FilePolarity,Positive*%
%FSLAX46Y46*%
G04 Gerber Fmt 4.6, Leading zero omitted, Abs format (unit mm)*
G04 Created by KiCad (PCBNEW 9.0.8-9.0.8~ubuntu24.04.1) date 2026-05-02 22:26:06*
%MOMM*%
%LPD*%
G01*
G04 APERTURE LIST*
%TA.AperFunction,HeatsinkPad*%
%ADD10O,2.100000X1.000000*%
%TD*%
%TA.AperFunction,HeatsinkPad*%
%ADD11O,1.800000X1.000000*%
%TD*%
%TA.AperFunction,ViaPad*%
%ADD12C,0.800000*%
%TD*%
G04 APERTURE END LIST*
D10*
%TO.P,J1,S1,SHIELD*%
%TO.N,GND*%
X155215000Y-82680000D03*
D11*
X151035000Y-82680000D03*
D10*
X155215000Y-91320000D03*
D11*
X151035000Y-91320000D03*
%TD*%
D12*
%TO.N,GND*%
X181400000Y-90000000D03*
X163400000Y-86600000D03*
X177600000Y-87000000D03*
X159625000Y-82200000D03*
X161025000Y-88000000D03*
%TD*%
%TA.AperFunction,Conductor*%
%TO.N,GND*%
G36*
X188642539Y-77320185D02*
G01*
X188688294Y-77372989D01*
X188699500Y-77424500D01*
X188699500Y-96575500D01*
X188679815Y-96642539D01*
X188627011Y-96688294D01*
X188575500Y-96699500D01*
X149424500Y-96699500D01*
X149357461Y-96679815D01*
X149311706Y-96627011D01*
X149300500Y-96575500D01*
X149300500Y-91194999D01*
X149895170Y-91194999D01*
X149895171Y-91195000D01*
X150360758Y-91195000D01*
X150355444Y-91204204D01*
X150335000Y-91280504D01*
X150335000Y-91359496D01*
X150355444Y-91435796D01*
X150360758Y-91445000D01*
X149895170Y-91445000D01*
X149913820Y-91538759D01*
X149913822Y-91538767D01*
X149970357Y-91675254D01*
X149970362Y-91675264D01*
X150052436Y-91798096D01*
X150052439Y-91798100D01*
X150156899Y-91902560D01*
X150156903Y-91902563D01*
X150279735Y-91984637D01*
X150279745Y-91984642D01*
X150416232Y-92041177D01*
X150416240Y-92041179D01*
X150561126Y-92069999D01*
X150561129Y-92070000D01*
X150910000Y-92070000D01*
X150910000Y-91620000D01*
X151160000Y-91620000D01*
X151160000Y-92070000D01*
X151508871Y-92070000D01*
X151508873Y-92069999D01*
X151653759Y-92041179D01*
X151653767Y-92041177D01*
X151790254Y-91984642D01*
X151790264Y-91984637D01*
X151913096Y-91902563D01*
X151913100Y-91902560D01*
X152017560Y-91798100D01*
X152017563Y-91798096D01*
X152099637Y-91675264D01*
X152099642Y-91675254D01*
X152156177Y-91538767D01*
X152156179Y-91538759D01*
X152174829Y-91445000D01*
X151709242Y-91445000D01*
X151714556Y-91435796D01*
X151735000Y-91359496D01*
X151735000Y-91280504D01*
X151714556Y-91204204D01*
X151709242Y-91195000D01*
X152174829Y-91195000D01*
X152174829Y-91194999D01*
X153925170Y-91194999D01*
X153925171Y-91195000D01*
X154390758Y-91195000D01*
X154385444Y-91204204D01*
X154365000Y-91280504D01*
X154365000Y-91359496D01*
X154385444Y-91435796D01*
X154390758Y-91445000D01*
X153925170Y-91445000D01*
X153943820Y-91538759D01*
X153943822Y-91538767D01*
X154000357Y-91675254D01*
X154000362Y-91675264D01*
X154082436Y-91798096D01*
X154082439Y-91798100D01*
X154186899Y-91902560D01*
X154186903Y-91902563D01*
X154309735Y-91984637D01*
X154309745Y-91984642D01*
X154446232Y-92041177D01*
X154446240Y-92041179D01*
X154591126Y-92069999D01*
X154591129Y-92070000D01*
X155090000Y-92070000D01*
X155090000Y-91620000D01*
X155340000Y-91620000D01*
X155340000Y-92070000D01*
X155838871Y-92070000D01*
X155838873Y-92069999D01*
X155983759Y-92041179D01*
X155983767Y-92041177D01*
X156120254Y-91984642D01*
X156120264Y-91984637D01*
X156243096Y-91902563D01*
X156243100Y-91902560D01*
X156347560Y-91798100D01*
X156347563Y-91798096D01*
X156429637Y-91675264D01*
X156429642Y-91675254D01*
X156486177Y-91538767D01*
X156486179Y-91538759D01*
X156504829Y-91445000D01*
X156039242Y-91445000D01*
X156044556Y-91435796D01*
X156065000Y-91359496D01*
X156065000Y-91280504D01*
X156044556Y-91204204D01*
X156039242Y-91195000D01*
X156504829Y-91195000D01*
X156504829Y-91194999D01*
X156486179Y-91101240D01*
X156486177Y-91101232D01*
X156429642Y-90964745D01*
X156429637Y-90964735D01*
X156347563Y-90841903D01*
X156347560Y-90841899D01*
X156243100Y-90737439D01*
X156243096Y-90737436D01*
X156120264Y-90655362D01*
X156120254Y-90655357D01*
X155983767Y-90598822D01*
X155983759Y-90598820D01*
X155838872Y-90570000D01*
X155340000Y-90570000D01*
X155340000Y-91020000D01*
X155090000Y-91020000D01*
X155090000Y-90570000D01*
X155030978Y-90570000D01*
X154963939Y-90550315D01*
X154918184Y-90497511D01*
X154908240Y-90428353D01*
X154937265Y-90364797D01*
X154968978Y-90338613D01*
X154970000Y-90338022D01*
X155031524Y-90302502D01*
X155127502Y-90206524D01*
X155195369Y-90088975D01*
X155230500Y-89957867D01*
X155230500Y-89822133D01*
X155195369Y-89691025D01*
X155127502Y-89573476D01*
X155031524Y-89477498D01*
X155031522Y-89477497D01*
X155031520Y-89477495D01*
X154913978Y-89409632D01*
X154913979Y-89409632D01*
X154898484Y-89405480D01*
X154782867Y-89374500D01*
X154647133Y-89374500D01*
X154531515Y-89405480D01*
X154516021Y-89409632D01*
X154398479Y-89477495D01*
X154398473Y-89477500D01*
X154302500Y-89573473D01*
X154302495Y-89573479D01*
X154234632Y-89691021D01*
X154234631Y-89691025D01*
X154199500Y-89822133D01*
X154199500Y-89957867D01*
X154234631Y-90088975D01*
X154234632Y-90088978D01*
X154302495Y-90206520D01*
X154302497Y-90206522D01*
X154302498Y-90206524D01*
X154398476Y-90302502D01*
X154461022Y-90338613D01*
X154507118Y-90365227D01*
X154555334Y-90415794D01*
X154568556Y-90484401D01*
X154542588Y-90549266D01*
X154485674Y-90589794D01*
X154469311Y-90594231D01*
X154446237Y-90598820D01*
X154446232Y-90598822D01*
X154309745Y-90655357D01*
X154309735Y-90655362D01*
X154186903Y-90737436D01*
X154186899Y-90737439D01*
X154082439Y-90841899D01*
X154082436Y-90841903D01*
X154000362Y-90964735D01*
X154000357Y-90964745D01*
X153943822Y-91101232D01*
X153943820Y-91101240D01*
X153925170Y-91194999D01*
X152174829Y-91194999D01*
X152156179Y-91101240D01*
X152156177Y-91101232D01*
X152099642Y-90964745D01*
X152099637Y-90964735D01*
X152017563Y-90841903D01*
X152017560Y-90841899D01*
X151913100Y-90737439D01*
X151913096Y-90737436D01*
X151790264Y-90655362D01*
X151790254Y-90655357D01*
X151653767Y-90598822D01*
X151653759Y-90598820D01*
X151508872Y-90570000D01*
X151160000Y-90570000D01*
X151160000Y-91020000D01*
X150910000Y-91020000D01*
X150910000Y-90570000D01*
X150561128Y-90570000D01*
X150416240Y-90598820D01*
X150416232Y-90598822D01*
X150279745Y-90655357D01*
X150279735Y-90655362D01*
X150156903Y-90737436D01*
X150156899Y-90737439D01*
X150052439Y-90841899D01*
X150052436Y-90841903D01*
X149970362Y-90964735D01*
X149970357Y-90964745D01*
X149913822Y-91101232D01*
X149913820Y-91101240D01*
X149895170Y-91194999D01*
X149300500Y-91194999D01*
X149300500Y-82554999D01*
X149895170Y-82554999D01*
X149895171Y-82555000D01*
X150360758Y-82555000D01*
X150355444Y-82564204D01*
X150335000Y-82640504D01*
X150335000Y-82719496D01*
X150355444Y-82795796D01*
X150360758Y-82805000D01*
X149895170Y-82805000D01*
X149913820Y-82898759D01*
X149913822Y-82898767D01*
X149970357Y-83035254D01*
X149970362Y-83035264D01*
X150052436Y-83158096D01*
X150052439Y-83158100D01*
X150156899Y-83262560D01*
X150156903Y-83262563D01*
X150279735Y-83344637D01*
X150279745Y-83344642D01*
X150416232Y-83401177D01*
X150416240Y-83401179D01*
X150561126Y-83429999D01*
X150561129Y-83430000D01*
X150910000Y-83430000D01*
X150910000Y-82980000D01*
X151160000Y-82980000D01*
X151160000Y-83430000D01*
X151508871Y-83430000D01*
X151508873Y-83429999D01*
X151653759Y-83401179D01*
X151653767Y-83401177D01*
X151790254Y-83344642D01*
X151790264Y-83344637D01*
X151913096Y-83262563D01*
X151913100Y-83262560D01*
X152017560Y-83158100D01*
X152017563Y-83158096D01*
X152099637Y-83035264D01*
X152099642Y-83035254D01*
X152156177Y-82898767D01*
X152156179Y-82898759D01*
X152174829Y-82805000D01*
X151709242Y-82805000D01*
X151714556Y-82795796D01*
X151735000Y-82719496D01*
X151735000Y-82640504D01*
X151714556Y-82564204D01*
X151709242Y-82555000D01*
X152174829Y-82555000D01*
X152174829Y-82554999D01*
X153925170Y-82554999D01*
X153925171Y-82555000D01*
X154390758Y-82555000D01*
X154385444Y-82564204D01*
X154365000Y-82640504D01*
X154365000Y-82719496D01*
X154385444Y-82795796D01*
X154390758Y-82805000D01*
X153925170Y-82805000D01*
X153943820Y-82898759D01*
X153943822Y-82898767D01*
X154000357Y-83035254D01*
X154000362Y-83035264D01*
X154082436Y-83158096D01*
X154082439Y-83158100D01*
X154186899Y-83262560D01*
X154186903Y-83262563D01*
X154309735Y-83344637D01*
X154309745Y-83344642D01*
X154446232Y-83401177D01*
X154469307Y-83405767D01*
X154531218Y-83438151D01*
X154565794Y-83498866D01*
X154562056Y-83568636D01*
X154521190Y-83625308D01*
X154507119Y-83634772D01*
X154398476Y-83697498D01*
X154398473Y-83697500D01*
X154302500Y-83793473D01*
X154302495Y-83793479D01*
X154234632Y-83911021D01*
X154234631Y-83911025D01*
X154199500Y-84042133D01*
X154199500Y-84177867D01*
X154234631Y-84308975D01*
X154234632Y-84308978D01*
X154302495Y-84426520D01*
X154302497Y-84426522D01*
X154302498Y-84426524D01*
X154398476Y-84522502D01*
X154398477Y-84522503D01*
X154398479Y-84522504D01*
X154516021Y-84590367D01*
X154516022Y-84590367D01*
X154516025Y-84590369D01*
X154647133Y-84625500D01*
X154647135Y-84625500D01*
X154782865Y-84625500D01*
X154782867Y-84625500D01*
X154913975Y-84590369D01*
X155031524Y-84522502D01*
X155127502Y-84426524D01*
X155195369Y-84308975D01*
X155230500Y-84177867D01*
X155230500Y-84042133D01*
X155195369Y-83911025D01*
X155127502Y-83793476D01*
X155031524Y-83697498D01*
X154968978Y-83661387D01*
X154920762Y-83610820D01*
X154907539Y-83542213D01*
X154933507Y-83477348D01*
X154990422Y-83436820D01*
X155030978Y-83430000D01*
X155090000Y-83430000D01*
X155090000Y-82980000D01*
X155340000Y-82980000D01*
X155340000Y-83430000D01*
X155838871Y-83430000D01*
X155838873Y-83429999D01*
X155983759Y-83401179D01*
X155983767Y-83401177D01*
X156120254Y-83344642D01*
X156120264Y-83344637D01*
X156243096Y-83262563D01*
X156243100Y-83262560D01*
X156347560Y-83158100D01*
X156347563Y-83158096D01*
X156429637Y-83035264D01*
X156429642Y-83035254D01*
X156486177Y-82898767D01*
X156486179Y-82898759D01*
X156504829Y-82805000D01*
X156039242Y-82805000D01*
X156044556Y-82795796D01*
X156065000Y-82719496D01*
X156065000Y-82640504D01*
X156044556Y-82564204D01*
X156039242Y-82555000D01*
X156504829Y-82555000D01*
X156504829Y-82554999D01*
X156486179Y-82461240D01*
X156486177Y-82461232D01*
X156429642Y-82324745D01*
X156429637Y-82324735D01*
X156347563Y-82201903D01*
X156347560Y-82201899D01*
X156243100Y-82097439D01*
X156243096Y-82097436D01*
X156120264Y-82015362D01*
X156120254Y-82015357D01*
X155983767Y-81958822D01*
X155983759Y-81958820D01*
X155838872Y-81930000D01*
X155340000Y-81930000D01*
X155340000Y-82380000D01*
X155090000Y-82380000D01*
X155090000Y-81930000D01*
X154591128Y-81930000D01*
X154446240Y-81958820D01*
X154446232Y-81958822D01*
X154309745Y-82015357D01*
X154309735Y-82015362D01*
X154186903Y-82097436D01*
X154186899Y-82097439D01*
X154082439Y-82201899D01*
X154082436Y-82201903D01*
X154000362Y-82324735D01*
X154000357Y-82324745D01*
X153943822Y-82461232D01*
X153943820Y-82461240D01*
X153925170Y-82554999D01*
X152174829Y-82554999D01*
X152156179Y-82461240D01*
X152156177Y-82461232D01*
X152099642Y-82324745D01*
X152099637Y-82324735D01*
X152017563Y-82201903D01*
X152017560Y-82201899D01*
X151913100Y-82097439D01*
X151913096Y-82097436D01*
X151790264Y-82015362D01*
X151790254Y-82015357D01*
X151653767Y-81958822D01*
X151653759Y-81958820D01*
X151508872Y-81930000D01*
X151160000Y-81930000D01*
X151160000Y-82380000D01*
X150910000Y-82380000D01*
X150910000Y-81930000D01*
X150561128Y-81930000D01*
X150416240Y-81958820D01*
X150416232Y-81958822D01*
X150279745Y-82015357D01*
X150279735Y-82015362D01*
X150156903Y-82097436D01*
X150156899Y-82097439D01*
X150052439Y-82201899D01*
X150052436Y-82201903D01*
X149970362Y-82324735D01*
X149970357Y-82324745D01*
X149913822Y-82461232D01*
X149913820Y-82461240D01*
X149895170Y-82554999D01*
X149300500Y-82554999D01*
X149300500Y-77424500D01*
X149320185Y-77357461D01*
X149372989Y-77311706D01*
X149424500Y-77300500D01*
X188575500Y-77300500D01*
X188642539Y-77320185D01*
G37*
%TD.AperFunction*%
%TD*%
M02*
